<?xml version="1.0" encoding="UTF-8" standalone="no"?><!DOCTYPE svg PUBLIC "-//W3C//DTD SVG 1.1//EN" "http://www.w3.org/Graphics/SVG/1.1/DTD/svg11.dtd"><svg width="100%" height="100%" viewBox="0 0 1200 1200" version="1.1" xmlns="http://www.w3.org/2000/svg" xmlns:xlink="http://www.w3.org/1999/xlink" xml:space="preserve" xmlns:serif="http://www.serif.com/" style="fill-rule:evenodd;clip-rule:evenodd;stroke-linejoin:round;stroke-miterlimit:2;"><rect id="Favicon" x="0" y="0" width="1200" height="1200" style="fill:none;"/><path d="M757.991,1068.65l-315.982,-0c-38.111,-0 -74.662,-14.676 -101.611,-40.8c-26.949,-26.123 -42.089,-61.554 -42.089,-98.499l0,-658.7c0,-36.945 15.14,-72.376 42.089,-98.499c26.949,-26.124 63.5,-40.8 101.611,-40.8l14.291,0c38.112,0 74.662,14.676 101.611,40.8c26.949,26.123 42.089,61.554 42.089,98.499c-0,-36.945 15.14,-72.376 42.089,-98.499c26.949,-26.124 63.499,-40.8 101.611,-40.8l14.291,0c38.111,0 74.662,14.676 101.611,40.8c26.949,26.123 42.089,61.554 42.089,98.499l-0,658.7c-0,36.945 -15.14,72.376 -42.089,98.499c-26.949,26.124 -63.5,40.8 -101.611,40.8Z" style="fill:#fddfb2;"/><clipPath id="_clip1"><path d="M757.991,1068.65l-315.982,-0c-38.111,-0 -74.662,-14.676 -101.611,-40.8c-26.949,-26.123 -42.089,-61.554 -42.089,-98.499l0,-658.7c0,-36.945 15.14,-72.376 42.089,-98.499c26.949,-26.124 63.5,-40.8 101.611,-40.8l14.291,0c38.112,0 74.662,14.676 101.611,40.8c26.949,26.123 42.089,61.554 42.089,98.499c-0,-36.945 15.14,-72.376 42.089,-98.499c26.949,-26.124 63.499,-40.8 101.611,-40.8l14.291,0c38.111,0 74.662,14.676 101.611,40.8c26.949,26.123 42.089,61.554 42.089,98.499l-0,658.7c-0,36.945 -15.14,72.376 -42.089,98.499c-26.949,26.124 -63.5,40.8 -101.611,40.8Z"/></clipPath><g clip-path="url(#_clip1)"><path d="M600,910.985l7.254,-5.985l9.816,-28.636l16.214,-247.981l109.471,-138.998l0,-203.286l-73.868,14.844l-34.702,-35.8l-13.512,-111.766l-20.673,65.488l0,692.12Z" style="fill:#d54f27;"/><path d="M812.608,267.476c-0,-11.295 -4.487,-22.127 -12.473,-30.113c-7.987,-7.987 -18.819,-12.474 -30.113,-12.474l-76.114,0c-8.835,0 -17.301,3.544 -23.502,9.837c-6.201,6.293 -9.619,14.811 -9.489,23.645c0.455,30.883 1.061,71.977 1.061,71.977l80.357,-17.137l-0.05,151.963l37.752,0c17.988,0 32.571,-14.583 32.571,-32.571c-0,-42.756 -0,-117.902 -0,-165.127Z" style="fill:#2a3952;"/><clipPath id="_clip2"><path d="M812.608,267.476c-0,-11.295 -4.487,-22.127 -12.473,-30.113c-7.987,-7.987 -18.819,-12.474 -30.113,-12.474l-76.114,0c-8.835,0 -17.301,3.544 -23.502,9.837c-6.201,6.293 -9.619,14.811 -9.489,23.645c0.455,30.883 1.061,71.977 1.061,71.977l80.357,-17.137l-0.05,151.963l37.752,0c17.988,0 32.571,-14.583 32.571,-32.571c-0,-42.756 -0,-117.902 -0,-165.127Z"/></clipPath><g clip-path="url(#_clip2)"><path d="M792.325,224.889l-106.802,0c-6.657,0 -13.041,2.645 -17.748,7.352c-4.707,4.707 -7.352,11.091 -7.352,17.748l0,81.428l70.995,-20.793l-0.043,147.51l28.379,0c17.989,0 32.571,-14.582 32.571,-32.571l0,-200.674Z" style="fill:#4e9dae;"/></g><path d="M600,951.636c0,0 48.079,-99.695 129.249,-132.331c81.169,-32.636 156.257,-37.554 172.442,-116.684c16.184,-79.131 28.73,393.417 28.73,393.417l-330.421,-27.389l-330.421,27.389c-0,0 12.546,-472.548 28.73,-393.417c16.185,79.13 91.273,84.048 172.442,116.684c81.17,32.636 129.249,132.331 129.249,132.331Z" style="fill:#2a3952;"/><path d="M607.254,905c0,0 30.392,-23.963 28.178,-93.347c-2.214,-69.385 -4.451,-220.42 122.668,-260.935c127.118,-40.516 130.615,-70.553 150.845,-120.149c20.23,-49.596 28.731,-196.29 28.731,-196.29l-115.872,-132.722l-167.902,4.89c0,-0 -46.648,88.714 -46.648,152.281c0,63.567 51.296,76.84 78.517,76.84c27.221,-0 72.329,-21.655 72.329,-53.089c-0,-31.435 -19.166,-53.788 -48.711,-53.788c-34.156,0 -46.893,46.606 -46.893,46.606c0,0 -20.817,-75.133 77.159,-77.342c74.367,-1.676 108.593,71.251 108.593,104.083l0,100.589c0,31.435 -24.369,54.698 -102.828,84.524c-73.502,27.941 -138.166,77.537 -138.166,175.333l0,242.516Z" style="fill:url(#_Linear3);"/><g><ellipse cx="762.638" cy="671.976" rx="84.121" ry="81.545" style="fill:#2a3952;"/><ellipse cx="762.638" cy="671.976" rx="69.547" ry="67.417" style="fill:#4e9dae;"/><ellipse cx="762.638" cy="671.976" rx="40.031" ry="38.805" style="fill:#2a3952;"/></g><path d="M764.326,1022.83l-328.652,-0c-23.852,-0 -46.726,-9.185 -63.592,-25.534c-16.865,-16.349 -26.34,-38.523 -26.34,-61.644l-0,-8.718c-0,-18.911 7.75,-37.049 21.545,-50.421c13.795,-13.373 32.505,-20.885 52.015,-20.885l1.614,-0c71.238,2.027 122.812,79.443 122.812,79.443l-160.039,1.18c17.281,29.116 37.46,44.185 60.89,43.497l155.421,0.164l155.421,-0.164c23.43,0.688 43.609,-14.381 60.89,-43.497l-160.039,-1.18c0,0 51.574,-77.416 122.812,-79.443l1.614,-0c19.51,-0 38.22,7.512 52.015,20.885c13.795,13.372 21.545,31.51 21.545,50.421l0,8.718c0,23.121 -9.475,45.295 -26.34,61.644c-16.866,16.349 -39.74,25.534 -63.592,25.534Z" style="fill:#fddfb2;"/><clipPath id="_clip4"><path d="M764.326,1022.83l-328.652,-0c-23.852,-0 -46.726,-9.185 -63.592,-25.534c-16.865,-16.349 -26.34,-38.523 -26.34,-61.644l-0,-8.718c-0,-18.911 7.75,-37.049 21.545,-50.421c13.795,-13.373 32.505,-20.885 52.015,-20.885l1.614,-0c71.238,2.027 122.812,79.443 122.812,79.443l-160.039,1.18c17.281,29.116 37.46,44.185 60.89,43.497l155.421,0.164l155.421,-0.164c23.43,0.688 43.609,-14.381 60.89,-43.497l-160.039,-1.18c0,0 51.574,-77.416 122.812,-79.443l1.614,-0c19.51,-0 38.22,7.512 52.015,20.885c13.795,13.372 21.545,31.51 21.545,50.421l0,8.718c0,23.121 -9.475,45.295 -26.34,61.644c-16.866,16.349 -39.74,25.534 -63.592,25.534Z"/></clipPath><g clip-path="url(#_clip4)"><path d="M782.159,829.328l-106.595,42.919l-38.279,80.918l117.142,13.859l0,74.66l70.562,-4.023l53.037,-74.902l0.461,-97.665l-96.328,-35.766Z" style="fill:#d54f27;"/><rect x="641.584" y="972.541" width="54.605" height="64.95" style="fill:#d54f27;"/><rect x="503.811" y="972.541" width="54.605" height="64.95" style="fill:#d54f27;"/></g><path d="M387.392,267.476c0,-11.295 4.487,-22.127 12.473,-30.113c7.987,-7.987 18.819,-12.474 30.113,-12.474l76.604,0c8.75,0 17.143,3.477 23.33,9.664c6.188,6.188 9.665,14.581 9.665,23.331l-0,76.748l-81.912,-21.421l0.05,151.963l-37.752,0c-17.988,0 -32.571,-14.583 -32.571,-32.571l0,-165.127Z" style="fill:#2a3952;"/><clipPath id="_clip5"><path d="M387.392,267.476c0,-11.295 4.487,-22.127 12.473,-30.113c7.987,-7.987 18.819,-12.474 30.113,-12.474l76.604,0c8.75,0 17.143,3.477 23.33,9.664c6.188,6.188 9.665,14.581 9.665,23.331l-0,76.748l-81.912,-21.421l0.05,151.963l-37.752,0c-17.988,0 -32.571,-14.583 -32.571,-32.571l0,-165.127Z"/></clipPath><g clip-path="url(#_clip5)"><path d="M407.675,224.889l106.802,0c6.657,0 13.041,2.645 17.748,7.352c4.707,4.707 7.352,11.091 7.352,17.748l-0,81.428l-70.995,-20.793l0.043,147.51l-28.379,0c-17.989,0 -32.571,-14.582 -32.571,-32.571l-0,-200.674Z" style="fill:#4e9dae;"/></g><g><ellipse cx="437.362" cy="671.976" rx="84.121" ry="81.545" style="fill:#2a3952;"/><ellipse cx="437.362" cy="671.976" rx="69.547" ry="67.417" style="fill:#4e9dae;"/><ellipse cx="437.362" cy="671.976" rx="40.031" ry="38.805" style="fill:#2a3952;"/></g><path d="M594.818,907.009c0,0 -30.391,-23.962 -28.177,-93.347c2.214,-69.384 4.45,-220.42 -122.668,-260.935c-127.118,-40.515 -130.615,-70.553 -150.845,-120.149c-20.231,-49.596 -28.731,-196.289 -28.731,-196.289l115.871,-132.723l167.902,4.89c0,-0 46.648,88.714 46.648,152.282c0,63.567 -51.295,76.839 -78.516,76.839c-27.222,-0 -72.329,-21.655 -72.329,-53.089c0,-31.434 19.165,-53.788 48.71,-53.788c34.157,0 46.893,46.607 46.893,46.607c0,-0 20.818,-75.134 -77.158,-77.342c-74.367,-1.677 -108.594,71.251 -108.594,104.082l0,100.59c0,31.434 24.369,54.697 102.829,84.523c73.502,27.941 138.165,77.538 138.165,175.333l0,242.516Z" style="fill:url(#_Linear6);"/><ellipse cx="782.159" cy="898.901" rx="20.779" ry="20.143" style="fill:#2a3952;"/></g><defs><linearGradient id="_Linear3" x1="0" y1="0" x2="1" y2="0" gradientUnits="userSpaceOnUse" gradientTransform="matrix(2.6617e-14,421.376,-1090.37,6.47212e-14,758.1,129.342)"><stop offset="0" style="stop-color:#4e9dae;stop-opacity:1"/><stop offset="1" style="stop-color:#2a3952;stop-opacity:1"/></linearGradient><linearGradient id="_Linear6" x1="0" y1="0" x2="1" y2="0" gradientUnits="userSpaceOnUse" gradientTransform="matrix(-2.6617e-14,421.376,1090.37,6.47212e-14,443.973,131.351)"><stop offset="0" style="stop-color:#4e9dae;stop-opacity:1"/><stop offset="1" style="stop-color:#2a3952;stop-opacity:1"/></linearGradient></defs></svg>